<?xml version="1.0" standalone="no"?>
<!DOCTYPE svg PUBLIC "-//W3C//DTD SVG 1.1//EN"
	"http://www.w3.org/Graphics/SVG/1.1/DTD/svg11.dtd">
<svg xmlns="http://www.w3.org/2000/svg" version="1.1"
	xmlns:xlink="http://www.w3.org/1999/xlink"
	color="black"
	width="701.60px" height="294.00px">
<style type="text/css">
.fill {fill: currentColor}
.stroke {stroke: currentColor; fill: none}
text{white-space: pre}
</style>
<title>BeginnerCourse/03-UpAndDown.abc (1) tune 1</title>
<!-- Creator: abcm2ps-8.14.6 -->
<!-- CreationDate: Dec  3, 2020 14:17 -->
<!-- CommandLine: -i -g -c BeginnerCourse/03-UpAndDown.abc -O build/MusicWeb/BeginnerCourse/03-UpAndDown.svg -->
<g stroke-width="0.70">
<!-- title: Up and Down -->
</g>
<g stroke-width="0.70" style="font:20.00px Times">
<text x="350.80" y="22.00" text-anchor="middle">Up and Down</text>
</g>
<g stroke-width="0.70" style="font:20.00px Times">
<path class="stroke" stroke-width="1"
	d="M10.00 143.00v-82.00"/>
<path class="stroke" stroke-width="1"
	d="M180.10 85.00v-24.00"/>
<path class="stroke" stroke-width="1"
	d="M180.10 143.00v-58.00"/>
<path class="stroke" stroke-width="1"
	d="M272.00 85.00v-24.00"/>
<path class="stroke" stroke-width="1"
	d="M272.00 143.00v-58.00"/>
<path class="stroke" stroke-width="1"
	d="M406.10 85.00v-24.00"/>
<path class="stroke" stroke-width="1"
	d="M406.10 143.00v-58.00"/>
<path class="stroke" stroke-width="1"
	d="M498.10 85.00v-24.00"/>
<path class="stroke" stroke-width="1"
	d="M498.10 143.00v-58.00"/>
<path class="stroke" stroke-width="1"
	d="M557.50 85.00v-24.00"/>
<path class="stroke" stroke-width="1"
	d="M557.50 143.00v-58.00"/>
<path class="stroke" stroke-width="1"
	d="M691.60 85.00v-24.00"/>
<path class="stroke" stroke-width="1"
	d="M691.60 143.00v-58.00"/>
<path d="m10.00 85.00
	h681.60
	M10.00 79.00
	h681.60
	M10.00 73.00
	h681.60
	M10.00 67.00
	h681.60
	M10.00 61.00
	h681.60
	" class="stroke"/>
<path d="m10.00 143.00
	h681.60
	M10.00 137.00
	h681.60
	M10.00 131.00
	h681.60
	M10.00 125.00
	h681.60
	M10.00 119.00
	h681.60
	" class="stroke"/>
<defs>
<path id="utclef" class="fill" d="m-50 -90
	c-72 -41 -72 -158 52 -188
	150 -10 220 188 90 256
	-114 52 -275 0 -293 -136
	-15 -181 93 -229 220 -334
	88 -87 79 -133 62 -210
	-51 33 -94 105 -89 186
	17 267 36 374 49 574
	6 96 -19 134 -77 135
	-80 1 -126 -93 -61 -133
	85 -41 133 101 31 105
	23 17 92 37 90 -92
	-10 -223 -39 -342 -50 -617
	0 -90 0 -162 96 -232
	56 72 63 230 22 289
	-74 106 -257 168 -255 316
	9 153 148 185 252 133
	86 -65 29 -192 -80 -176
	-71 12 -105 67 -59 124"/>
<use id="tclef" transform="translate(0,6) scale(0.045)"
	xlink:href="#utclef"/>
</defs>
<use x="22.00" y="79.00" xlink:href="#tclef"/>
<g style="font:bold 16px serif"
	transform="translate(40.50,84.50) scale(1.2,1)">
	<text text-anchor="middle">4</text>
	<text y="-12" text-anchor="middle">4</text>
</g>
<defs>
<path id="hl" class="stroke" d="m-6 0h12"/>
</defs>
<use x="60.00" y="91.00" xlink:href="#hl"/>
<defs>
<ellipse id="hd" rx="4.1" ry="2.9"
	transform="rotate(-20)" class="fill"/>
</defs>
<use x="60.00" y="91.00" xlink:href="#hd"/>
<path d="M63.50 91.00v-21.00" class="stroke"/>
<use x="92.40" y="88.00" xlink:href="#hd"/>
<path d="M95.90 88.00v-21.00" class="stroke"/>
<use x="124.80" y="85.00" xlink:href="#hd"/>
<path d="M128.30 85.00v-21.00" class="stroke"/>
<use x="157.10" y="82.00" xlink:href="#hd"/>
<path d="M160.60 82.00v-21.00" class="stroke"/>
<defs>
<path id="Hd" class="fill" d="m3 -1.6
	c-1 -1.8 -7 1.4 -6 3.2
	1 1.8 7 -1.4 6 -3.2
	m0.5 -0.3
	c2 3.8 -5 7.6 -7 3.8
	-2 -3.8 5 -7.6 7 -3.8"/>
</defs>
<use x="194.10" y="79.00" xlink:href="#Hd"/>
<path d="M197.60 79.00v-21.00" class="stroke"/>
<use x="239.80" y="79.00" xlink:href="#Hd"/>
<path d="M243.30 79.00v-21.00" class="stroke"/>
<use x="286.00" y="79.00" xlink:href="#hd"/>
<path d="M289.50 79.00v-21.00" class="stroke"/>
<use x="318.40" y="82.00" xlink:href="#hd"/>
<path d="M321.90 82.00v-21.00" class="stroke"/>
<use x="350.80" y="85.00" xlink:href="#hd"/>
<path d="M354.30 85.00v-21.00" class="stroke"/>
<use x="383.20" y="88.00" xlink:href="#hd"/>
<path d="M386.70 88.00v-21.00" class="stroke"/>
<use x="420.10" y="91.00" xlink:href="#hl"/>
<use x="420.10" y="91.00" xlink:href="#Hd"/>
<path d="M423.60 91.00v-21.00" class="stroke"/>
<use x="465.90" y="91.00" xlink:href="#hl"/>
<use x="465.90" y="91.00" xlink:href="#Hd"/>
<path d="M469.40 91.00v-21.00" class="stroke"/>
<defs>
<rect id="r1" class="fill"
	x="-3.5" y="-6" width="7" height="3"/>
</defs>
<use x="527.80" y="73.00" xlink:href="#r1"/>
<use x="571.50" y="91.00" xlink:href="#hl"/>
<use x="571.50" y="91.00" xlink:href="#hd"/>
<path d="M575.00 91.00v-21.00" class="stroke"/>
<use x="603.90" y="88.00" xlink:href="#hd"/>
<path d="M607.40 88.00v-21.00" class="stroke"/>
<use x="636.30" y="85.00" xlink:href="#hd"/>
<path d="M639.80 85.00v-21.00" class="stroke"/>
<use x="668.60" y="82.00" xlink:href="#hd"/>
<path d="M672.10 82.00v-21.00" class="stroke"/>
<defs>
<path id="ubclef" class="fill" d="m-200 -87
	c124 -35 222 -78 254 -236
	43 -228 -167 -246 -192 -103
	59 -80 157 22 92 78
	-62 47 -115 -22 -106 -88
	21 -141 270 -136 274 52
	-1 175 -106 264 -322 297
	m357 -250
	c0 -36 51 -34 51 0
	0 37 -51 36 -51 0
	m-2 -129
	c0 -36 51 -34 51 0
	0 38 -51 37 -51 0"/>
<use id="bclef" transform="translate(0,18) scale(0.045)"
	xlink:href="#ubclef"/>
</defs>
<use x="22.00" y="125.00" xlink:href="#bclef"/>
<g style="font:bold 16px serif"
	transform="translate(40.50,142.50) scale(1.2,1)">
	<text text-anchor="middle">4</text>
	<text y="-12" text-anchor="middle">4</text>
</g>
<use x="110.30" y="131.00" xlink:href="#r1"/>
<use x="226.10" y="131.00" xlink:href="#r1"/>
<use x="339.10" y="131.00" xlink:href="#r1"/>
<use x="452.10" y="131.00" xlink:href="#r1"/>
<use x="527.80" y="131.00" xlink:href="#r1"/>
<use x="624.60" y="131.00" xlink:href="#r1"/>
</g>
<g stroke-width="0.70" style="font:20.00px Times">
<path class="stroke" stroke-width="1"
	d="M10.00 271.00v-82.00"/>
<path class="stroke" stroke-width="1"
	d="M110.00 213.00v-24.00"/>
<path class="stroke" stroke-width="1"
	d="M110.00 271.00v-58.00"/>
<path class="stroke" stroke-width="1"
	d="M219.70 213.00v-24.00"/>
<path class="stroke" stroke-width="1"
	d="M219.70 271.00v-58.00"/>
<path class="stroke" stroke-width="1"
	d="M295.80 213.00v-24.00"/>
<path class="stroke" stroke-width="1"
	d="M295.80 271.00v-58.00"/>
<path class="stroke" stroke-width="1"
	d="M345.90 213.00v-24.00"/>
<path class="stroke" stroke-width="1"
	d="M345.90 271.00v-58.00"/>
<path class="stroke" stroke-width="1"
	d="M455.70 213.00v-24.00"/>
<path class="stroke" stroke-width="1"
	d="M455.70 271.00v-58.00"/>
<path class="stroke" stroke-width="1"
	d="M565.40 213.00v-24.00"/>
<path class="stroke" stroke-width="1"
	d="M565.40 271.00v-58.00"/>
<path class="stroke" stroke-width="1"
	d="M641.50 213.00v-24.00"/>
<path class="stroke" stroke-width="1"
	d="M641.50 271.00v-58.00"/>
<path class="stroke" stroke-width="1"
	d="M691.60 213.00v-24.00"/>
<path class="stroke" stroke-width="1"
	d="M691.60 271.00v-58.00"/>
<path d="m10.00 213.00
	h681.60
	M10.00 207.00
	h681.60
	M10.00 201.00
	h681.60
	M10.00 195.00
	h681.60
	M10.00 189.00
	h681.60
	" class="stroke"/>
<path d="m10.00 271.00
	h681.60
	M10.00 265.00
	h681.60
	M10.00 259.00
	h681.60
	M10.00 253.00
	h681.60
	M10.00 247.00
	h681.60
	" class="stroke"/>
<use x="22.00" y="207.00" xlink:href="#tclef"/>
<use x="48.00" y="207.00" xlink:href="#Hd"/>
<path d="M51.50 207.00v-21.00" class="stroke"/>
<use x="84.10" y="207.00" xlink:href="#Hd"/>
<path d="M87.60 207.00v-21.00" class="stroke"/>
<use x="124.00" y="207.00" xlink:href="#hd"/>
<path d="M127.50 207.00v-21.00" class="stroke"/>
<use x="149.60" y="210.00" xlink:href="#hd"/>
<path d="M153.10 210.00v-21.00" class="stroke"/>
<use x="175.30" y="213.00" xlink:href="#hd"/>
<path d="M178.80 213.00v-21.00" class="stroke"/>
<use x="201.00" y="216.00" xlink:href="#hd"/>
<path d="M204.50 216.00v-21.00" class="stroke"/>
<use x="233.70" y="219.00" xlink:href="#hl"/>
<use x="233.70" y="219.00" xlink:href="#Hd"/>
<path d="M237.20 219.00v-21.00" class="stroke"/>
<use x="269.90" y="219.00" xlink:href="#hl"/>
<use x="269.90" y="219.00" xlink:href="#Hd"/>
<path d="M273.40 219.00v-21.00" class="stroke"/>
<use x="320.80" y="201.00" xlink:href="#r1"/>
<use x="359.90" y="219.00" xlink:href="#hl"/>
<use x="359.90" y="219.00" xlink:href="#hd"/>
<path d="M363.40 219.00v-21.00" class="stroke"/>
<use x="385.60" y="216.00" xlink:href="#hd"/>
<path d="M389.10 216.00v-21.00" class="stroke"/>
<use x="411.30" y="213.00" xlink:href="#hd"/>
<path d="M414.80 213.00v-21.00" class="stroke"/>
<use x="437.00" y="210.00" xlink:href="#hd"/>
<path d="M440.50 210.00v-21.00" class="stroke"/>
<use x="469.70" y="207.00" xlink:href="#hd"/>
<path d="M473.20 207.00v-21.00" class="stroke"/>
<use x="495.30" y="210.00" xlink:href="#hd"/>
<path d="M498.80 210.00v-21.00" class="stroke"/>
<use x="521.00" y="213.00" xlink:href="#hd"/>
<path d="M524.50 213.00v-21.00" class="stroke"/>
<use x="546.70" y="216.00" xlink:href="#hd"/>
<path d="M550.20 216.00v-21.00" class="stroke"/>
<use x="579.40" y="219.00" xlink:href="#hl"/>
<use x="579.40" y="219.00" xlink:href="#Hd"/>
<path d="M582.90 219.00v-21.00" class="stroke"/>
<use x="615.60" y="219.00" xlink:href="#hl"/>
<use x="615.60" y="219.00" xlink:href="#Hd"/>
<path d="M619.10 219.00v-21.00" class="stroke"/>
<use x="666.50" y="201.00" xlink:href="#r1"/>
<use x="22.00" y="253.00" xlink:href="#bclef"/>
<use x="71.00" y="259.00" xlink:href="#r1"/>
<use x="164.80" y="259.00" xlink:href="#r1"/>
<use x="257.70" y="259.00" xlink:href="#r1"/>
<use x="320.80" y="259.00" xlink:href="#r1"/>
<use x="400.80" y="259.00" xlink:href="#r1"/>
<use x="510.50" y="259.00" xlink:href="#r1"/>
<use x="603.40" y="259.00" xlink:href="#r1"/>
<use x="666.50" y="259.00" xlink:href="#r1"/>
</g>
</svg>
