<?xml version="1.0" standalone="no"?>
<!DOCTYPE svg PUBLIC "-//W3C//DTD SVG 1.1//EN"
	"http://www.w3.org/Graphics/SVG/1.1/DTD/svg11.dtd">
<svg xmlns="http://www.w3.org/2000/svg" version="1.1"
	xmlns:xlink="http://www.w3.org/1999/xlink"
	color="black"
	width="701.60px" height="422.00px">
<style type="text/css">
.fill {fill: currentColor}
.stroke {stroke: currentColor; fill: none}
text{white-space: pre}
</style>
<title>BoosterMusic/03-SkipToMyLou.abc (1) tune 1</title>
<!-- Creator: abcm2ps-8.14.6 -->
<!-- CreationDate: Nov 28, 2020 20:33 -->
<!-- CommandLine: -i -g -c BoosterMusic/03-SkipToMyLou.abc -O build/MusicWeb/BoosterMusic/03-SkipToMyLou.svg -->
<g stroke-width="0.70">
<!-- title: Skip to My Lou -->
</g>
<g stroke-width="0.70" font-family="Times" font-size="20.00px" >
<text x="350.80" y="22.00" text-anchor="middle">Skip to My Lou</text>
</g>
<g stroke-width="0.70" font-family="Times" font-size="20.00px" >
<path class="stroke" stroke-width="1"
	d="M10.00 143.00v-82.00"/>
<defs>
<g id="rdots" class="fill">
	<circle cx="0" cy="-9" r="1.2"/>
	<circle cx="0" cy="-15" r="1.2"/>
</g>
</defs>
<use x="69.00" y="85.00" xlink:href="#rdots"/>
<path class="stroke" stroke-width="1"
	d="M65.00 85.00v-24.00"/>
<path class="stroke" stroke-width="3"
	d="M60.50 85.00v-24.00"/>
<use x="69.00" y="143.00" xlink:href="#rdots"/>
<path class="stroke" stroke-width="1"
	d="M65.00 143.00v-58.00"/>
<path class="stroke" stroke-width="3"
	d="M60.50 143.00v-58.00"/>
<path class="stroke" stroke-width="1"
	d="M182.80 85.00v-24.00"/>
<path class="stroke" stroke-width="1"
	d="M182.80 143.00v-58.00"/>
<path class="stroke" stroke-width="1"
	d="M277.30 85.00v-24.00"/>
<path class="stroke" stroke-width="1"
	d="M277.30 143.00v-58.00"/>
<path class="stroke" stroke-width="1"
	d="M389.90 85.00v-24.00"/>
<path class="stroke" stroke-width="1"
	d="M389.90 143.00v-58.00"/>
<path class="stroke" stroke-width="1"
	d="M484.30 85.00v-24.00"/>
<path class="stroke" stroke-width="1"
	d="M484.30 143.00v-58.00"/>
<path class="stroke" stroke-width="1"
	d="M597.10 85.00v-24.00"/>
<path class="stroke" stroke-width="1"
	d="M597.10 143.00v-58.00"/>
<path class="stroke" stroke-width="1"
	d="M691.60 85.00v-24.00"/>
<path class="stroke" stroke-width="1"
	d="M691.60 143.00v-58.00"/>
<path d="m10.00 85.00
	h681.60
	M10.00 79.00
	h681.60
	M10.00 73.00
	h681.60
	M10.00 67.00
	h681.60
	M10.00 61.00
	h681.60
	" class="stroke"/>
<path d="m10.00 143.00
	h681.60
	M10.00 137.00
	h681.60
	M10.00 131.00
	h681.60
	M10.00 125.00
	h681.60
	M10.00 119.00
	h681.60
	" class="stroke"/>
<defs>
<path id="utclef" class="fill" d="m-50 -90
	c-72 -41 -72 -158 52 -188
	150 -10 220 188 90 256
	-114 52 -275 0 -293 -136
	-15 -181 93 -229 220 -334
	88 -87 79 -133 62 -210
	-51 33 -94 105 -89 186
	17 267 36 374 49 574
	6 96 -19 134 -77 135
	-80 1 -126 -93 -61 -133
	85 -41 133 101 31 105
	23 17 92 37 90 -92
	-10 -223 -39 -342 -50 -617
	0 -90 0 -162 96 -232
	56 72 63 230 22 289
	-74 106 -257 168 -255 316
	9 153 148 185 252 133
	86 -65 29 -192 -80 -176
	-71 12 -105 67 -59 124"/>
<use id="tclef" transform="translate(0,6) scale(0.045)"
	xlink:href="#utclef"/>
</defs>
<use x="22.00" y="79.00" xlink:href="#tclef"/>
<g font-weight="bold" font-family="serif" font-size="16px" 
	transform="translate(40.50,84.50) scale(1.2,1)">
	<text text-anchor="middle">4</text>
	<text y="-12" text-anchor="middle">4</text>
</g>
<defs>
<ellipse id="hd" rx="4.1" ry="2.9"
	transform="rotate(-20)" class="fill"/>
</defs>
<use x="83.00" y="85.00" xlink:href="#hd"/>
<path d="M86.50 85.00v-21.00" class="stroke"/>
<use x="109.70" y="85.00" xlink:href="#hd"/>
<path d="M113.20 85.00v-21.00" class="stroke"/>
<defs>
<rect id="r2" class="fill"
	x="-3.5" y="-3" width="7" height="3"/>
</defs>
<use x="136.50" y="73.00" xlink:href="#r2"/>
<use x="196.80" y="85.00" xlink:href="#hd"/>
<path d="M200.30 85.00v-21.00" class="stroke"/>
<use x="223.50" y="85.00" xlink:href="#hd"/>
<path d="M227.00 85.00v-21.00" class="stroke"/>
<defs>
<path id="Hd" class="fill" d="m3 -1.6
	c-1 -1.8 -7 1.4 -6 3.2
	1 1.8 7 -1.4 6 -3.2
	m0.5 -0.3
	c2 3.8 -5 7.6 -7 3.8
	-2 -3.8 5 -7.6 7 -3.8"/>
</defs>
<use x="250.30" y="79.00" xlink:href="#Hd"/>
<path d="M253.80 79.00v-21.00" class="stroke"/>
<use x="290.30" y="88.00" xlink:href="#hd"/>
<path d="M293.80 88.00v-21.00" class="stroke"/>
<use x="317.00" y="88.00" xlink:href="#hd"/>
<path d="M320.50 88.00v-21.00" class="stroke"/>
<use x="343.80" y="73.00" xlink:href="#r2"/>
<use x="403.90" y="88.00" xlink:href="#hd"/>
<path d="M407.40 88.00v-21.00" class="stroke"/>
<use x="430.60" y="88.00" xlink:href="#hd"/>
<path d="M434.10 88.00v-21.00" class="stroke"/>
<use x="457.40" y="82.00" xlink:href="#Hd"/>
<path d="M460.90 82.00v-21.00" class="stroke"/>
<use x="497.30" y="85.00" xlink:href="#hd"/>
<path d="M500.80 85.00v-21.00" class="stroke"/>
<use x="524.10" y="85.00" xlink:href="#hd"/>
<path d="M527.60 85.00v-21.00" class="stroke"/>
<use x="550.90" y="73.00" xlink:href="#r2"/>
<use x="611.10" y="85.00" xlink:href="#hd"/>
<path d="M614.60 85.00v-21.00" class="stroke"/>
<use x="637.90" y="85.00" xlink:href="#hd"/>
<path d="M641.40 85.00v-21.00" class="stroke"/>
<use x="664.70" y="79.00" xlink:href="#Hd"/>
<path d="M668.20 79.00v-21.00" class="stroke"/>
<defs>
<path id="ubclef" class="fill" d="m-200 -87
	c124 -35 222 -78 254 -236
	43 -228 -167 -246 -192 -103
	59 -80 157 22 92 78
	-62 47 -115 -22 -106 -88
	21 -141 270 -136 274 52
	-1 175 -106 264 -322 297
	m357 -250
	c0 -36 51 -34 51 0
	0 37 -51 36 -51 0
	m-2 -129
	c0 -36 51 -34 51 0
	0 38 -51 37 -51 0"/>
<use id="bclef" transform="translate(0,18) scale(0.045)"
	xlink:href="#ubclef"/>
</defs>
<use x="22.00" y="125.00" xlink:href="#bclef"/>
<g font-weight="bold" font-family="serif" font-size="16px" 
	transform="translate(40.50,142.50) scale(1.2,1)">
	<text text-anchor="middle">4</text>
	<text y="-12" text-anchor="middle">4</text>
</g>
<use x="83.00" y="131.00" xlink:href="#r2"/>
<defs>
<path id="hl" class="stroke" d="m-6 0h12"/>
</defs>
<use x="136.50" y="113.00" xlink:href="#hl"/>
<use x="136.50" y="113.00" xlink:href="#hd"/>
<path d="M133.00 113.00v21.00" class="stroke"/>
<use x="163.40" y="113.00" xlink:href="#hl"/>
<use x="163.40" y="113.00" xlink:href="#hd"/>
<path d="M159.90 113.00v21.00" class="stroke"/>
<defs>
<rect id="r1" class="fill"
	x="-3.5" y="-6" width="7" height="3"/>
</defs>
<use x="230.00" y="131.00" xlink:href="#r1"/>
<use x="290.30" y="131.00" xlink:href="#r2"/>
<use x="343.80" y="116.00" xlink:href="#hd"/>
<path d="M340.30 116.00v21.00" class="stroke"/>
<use x="370.50" y="116.00" xlink:href="#hd"/>
<path d="M367.00 116.00v21.00" class="stroke"/>
<use x="437.10" y="131.00" xlink:href="#r1"/>
<use x="497.30" y="131.00" xlink:href="#r2"/>
<use x="550.90" y="113.00" xlink:href="#hl"/>
<use x="550.90" y="113.00" xlink:href="#hd"/>
<path d="M547.40 113.00v21.00" class="stroke"/>
<use x="577.80" y="113.00" xlink:href="#hl"/>
<use x="577.80" y="113.00" xlink:href="#hd"/>
<path d="M574.30 113.00v21.00" class="stroke"/>
<use x="644.40" y="131.00" xlink:href="#r1"/>
</g>
<g stroke-width="0.70" font-family="Times" font-size="20.00px" >
<path class="stroke" stroke-width="1"
	d="M10.00 271.00v-82.00"/>
<path class="stroke" stroke-width="1"
	d="M249.70 213.00v-24.00"/>
<path class="stroke" stroke-width="1"
	d="M249.70 271.00v-58.00"/>
<path class="stroke" stroke-width="1"
	d="M387.30 213.00v-24.00"/>
<path class="stroke" stroke-width="1"
	d="M387.30 271.00v-58.00"/>
<path class="stroke" stroke-width="1"
	d="M524.80 213.00v-24.00"/>
<path class="stroke" stroke-width="1"
	d="M524.80 271.00v-58.00"/>
<path class="stroke" stroke-width="1"
	d="M691.60 213.00v-24.00"/>
<path class="stroke" stroke-width="1"
	d="M691.60 271.00v-58.00"/>
<path d="m10.00 213.00
	h681.60
	M10.00 207.00
	h681.60
	M10.00 201.00
	h681.60
	M10.00 195.00
	h681.60
	M10.00 189.00
	h681.60
	" class="stroke"/>
<path d="m10.00 271.00
	h681.60
	M10.00 265.00
	h681.60
	M10.00 259.00
	h681.60
	M10.00 253.00
	h681.60
	M10.00 247.00
	h681.60
	" class="stroke"/>
<use x="22.00" y="207.00" xlink:href="#tclef"/>
<use x="48.00" y="216.00" xlink:href="#hd"/>
<path d="M51.50 216.00v-21.00" class="stroke"/>
<path class="fill"
	d="M101.00 191.80l32.40 -2.60v3.20l-32.40 2.60"/>
<use x="97.90" y="213.00" xlink:href="#hd"/>
<path d="M101.40 213.00v-20.20" class="stroke"/>
<use x="129.60" y="210.00" xlink:href="#hd"/>
<path d="M133.10 210.00v-19.80" class="stroke"/>
<use x="164.90" y="213.00" xlink:href="#hd"/>
<path d="M168.40 213.00v-21.00" class="stroke"/>
<use x="214.80" y="216.00" xlink:href="#hd"/>
<path d="M218.30 216.00v-21.00" class="stroke"/>
<use x="318.50" y="201.00" xlink:href="#r1"/>
<use x="404.90" y="213.00" xlink:href="#Hd"/>
<path d="M408.40 213.00v-21.00" class="stroke"/>
<use x="475.50" y="201.00" xlink:href="#r2"/>
<use x="542.50" y="213.00" xlink:href="#hd"/>
<path d="M546.00 213.00v-21.00" class="stroke"/>
<use x="592.30" y="213.00" xlink:href="#hd"/>
<path d="M595.80 213.00v-21.00" class="stroke"/>
<use x="642.20" y="207.00" xlink:href="#Hd"/>
<path d="M645.70 207.00v-21.00" class="stroke"/>
<use x="22.00" y="253.00" xlink:href="#bclef"/>
<use x="140.80" y="259.00" xlink:href="#r1"/>
<use x="267.30" y="241.00" xlink:href="#hl"/>
<use x="267.30" y="241.00" xlink:href="#Hd"/>
<path d="M263.80 241.00v21.00" class="stroke"/>
<use x="337.90" y="241.00" xlink:href="#hl"/>
<use x="337.90" y="241.00" xlink:href="#Hd"/>
<path d="M334.40 241.00v21.00" class="stroke"/>
<use x="404.90" y="259.00" xlink:href="#r2"/>
<use x="475.50" y="241.00" xlink:href="#hl"/>
<use x="475.50" y="241.00" xlink:href="#Hd"/>
<path d="M472.00 241.00v21.00" class="stroke"/>
<use x="608.20" y="259.00" xlink:href="#r1"/>
</g>
<g stroke-width="0.70" font-family="Times" font-size="20.00px" >
<path class="stroke" stroke-width="1"
	d="M10.00 399.00v-82.00"/>
<path class="stroke" stroke-width="1"
	d="M126.50 341.00v-24.00"/>
<path class="stroke" stroke-width="1"
	d="M126.50 399.00v-58.00"/>
<path class="stroke" stroke-width="1"
	d="M239.50 341.00v-24.00"/>
<path class="stroke" stroke-width="1"
	d="M239.50 399.00v-58.00"/>
<path class="stroke" stroke-width="1"
	d="M332.10 341.00v-24.00"/>
<path class="stroke" stroke-width="1"
	d="M332.10 399.00v-58.00"/>
<path class="stroke" stroke-width="1"
	d="M445.00 341.00v-24.00"/>
<path class="stroke" stroke-width="1"
	d="M445.00 399.00v-58.00"/>
<path class="stroke" stroke-width="1"
	d="M593.10 341.00v-24.00"/>
<path class="stroke" stroke-width="1"
	d="M593.10 399.00v-58.00"/>
<path class="stroke" stroke-width="3"
	d="M690.10 341.00v-24.00"/>
<path class="stroke" stroke-width="1"
	d="M685.60 341.00v-24.00"/>
<use x="681.60" y="341.00" xlink:href="#rdots"/>
<path class="stroke" stroke-width="3"
	d="M690.10 399.00v-58.00"/>
<path class="stroke" stroke-width="1"
	d="M685.60 399.00v-58.00"/>
<use x="681.60" y="399.00" xlink:href="#rdots"/>
<path d="m10.00 341.00
	h681.60
	M10.00 335.00
	h681.60
	M10.00 329.00
	h681.60
	M10.00 323.00
	h681.60
	M10.00 317.00
	h681.60
	" class="stroke"/>
<path d="m10.00 399.00
	h681.60
	M10.00 393.00
	h681.60
	M10.00 387.00
	h681.60
	M10.00 381.00
	h681.60
	M10.00 375.00
	h681.60
	" class="stroke"/>
<use x="22.00" y="335.00" xlink:href="#tclef"/>
<use x="47.00" y="344.00" xlink:href="#Hd"/>
<path d="M50.50 344.00v-21.00" class="stroke"/>
<use x="93.70" y="329.00" xlink:href="#r2"/>
<use x="140.50" y="344.00" xlink:href="#hd"/>
<path d="M144.00 344.00v-21.00" class="stroke"/>
<use x="173.60" y="344.00" xlink:href="#hd"/>
<path d="M177.10 344.00v-21.00" class="stroke"/>
<use x="206.60" y="338.00" xlink:href="#Hd"/>
<path d="M210.10 338.00v-21.00" class="stroke"/>
<use x="252.50" y="341.00" xlink:href="#Hd"/>
<path d="M256.00 341.00v-21.00" class="stroke"/>
<use x="299.20" y="329.00" xlink:href="#r2"/>
<use x="346.10" y="341.00" xlink:href="#hd"/>
<path d="M349.60 341.00v-21.00" class="stroke"/>
<use x="379.10" y="341.00" xlink:href="#hd"/>
<path d="M382.60 341.00v-21.00" class="stroke"/>
<use x="412.20" y="335.00" xlink:href="#Hd"/>
<path d="M415.70 335.00v-21.00" class="stroke"/>
<use x="459.00" y="344.00" xlink:href="#hd"/>
<path d="M462.50 344.00v-21.00" class="stroke"/>
<path class="fill"
	d="M495.20 319.70l21.80 -2.40v3.20l-21.80 2.40"/>
<use x="492.10" y="341.00" xlink:href="#hd"/>
<path d="M495.60 341.00v-20.30" class="stroke"/>
<use x="513.20" y="338.00" xlink:href="#hd"/>
<path d="M516.70 338.00v-19.70" class="stroke"/>
<use x="536.70" y="341.00" xlink:href="#hd"/>
<path d="M540.20 341.00v-21.00" class="stroke"/>
<use x="569.80" y="344.00" xlink:href="#hd"/>
<path d="M573.30 344.00v-21.00" class="stroke"/>
<use x="642.40" y="329.00" xlink:href="#r1"/>
<use x="22.00" y="381.00" xlink:href="#bclef"/>
<use x="47.00" y="387.00" xlink:href="#r2"/>
<use x="93.70" y="372.00" xlink:href="#Hd"/>
<path d="M90.20 372.00v21.00" class="stroke"/>
<use x="183.00" y="387.00" xlink:href="#r1"/>
<use x="252.50" y="387.00" xlink:href="#r2"/>
<use x="299.20" y="369.00" xlink:href="#hl"/>
<use x="299.20" y="369.00" xlink:href="#Hd"/>
<path d="M295.70 369.00v21.00" class="stroke"/>
<use x="388.50" y="387.00" xlink:href="#r1"/>
<use x="519.10" y="387.00" xlink:href="#r1"/>
<use x="607.10" y="369.00" xlink:href="#hl"/>
<use x="607.10" y="369.00" xlink:href="#Hd"/>
<path d="M603.60 369.00v21.00" class="stroke"/>
<use x="653.80" y="369.00" xlink:href="#hl"/>
<use x="653.80" y="369.00" xlink:href="#Hd"/>
<path d="M650.30 369.00v21.00" class="stroke"/>
</g>
</svg>
