<?xml version="1.0" standalone="no"?>
<!DOCTYPE svg PUBLIC "-//W3C//DTD SVG 1.1//EN"
	"http://www.w3.org/Graphics/SVG/1.1/DTD/svg11.dtd">
<svg xmlns="http://www.w3.org/2000/svg" version="1.1"
	xmlns:xlink="http://www.w3.org/1999/xlink"
	color="black"
	width="701.60px" height="491.90px">
<style type="text/css">
.fill {fill: currentColor}
.stroke {stroke: currentColor; fill: none}
text{white-space: pre}
</style>
<title>BoosterMusic/07-AmazingGracePs.abc (1) tune 1</title>
<!-- Creator: abcm2ps-8.14.6 -->
<!-- CreationDate: Dec  3, 2020 14:17 -->
<!-- CommandLine: -i -g -c BoosterMusic/07-AmazingGracePs.abc -O build/MusicWeb/BoosterMusic/07-AmazingGrace.svg -->
<g stroke-width="0.70">
<!-- title: Amazing Grace -->
</g>
<g stroke-width="0.70" font-family="Times" font-size="20.00px" >
<text x="350.80" y="22.00" text-anchor="middle">Amazing Grace</text>
</g>
<g stroke-width="0.70" font-style="italic" font-family="Times" font-size="14.00px" >
<text x="691.60" y="46.00" text-anchor="end">Traditional</text>
</g>
<g stroke-width="0.70" font-weight="bold" font-family="Times" font-size="15.00px" >
<text x="67.50" y="69.00">English Waltz  </text>
<path class="stroke" stroke-width="1"
	d="M10.00 174.30v-91.30"/>
<defs>
<path id="brace" class="fill" d="m-2.5 101
	c-4.5 -4.6 -7.5 -12.2 -4.4 -26.8
	3.5 -14.3 3.2 -21.7 -2.1 -24.2
	7.4 2.4 7.3 14.2 3.5 29.5
	-2.7 9.5 -1.5 16.2 3 21.5
	M-2.5 1c-4.5 4.6 -7.5 12.2 -4.4 26.8
	c3.5 14.3 3.2 21.7 -2.1 24.2
	7.4 -2.4 7.3 -14.2 3.5 -29.5
	-2.7 -9.5 -1.5 -16.2 3 -21.5"/>
</defs>
<g transform="translate(10.00,83.00) scale(1,0.91)">
	<use xlink:href="#brace"/>
</g>
<defs>
<g id="rdots" class="fill">
	<circle cx="0" cy="-9" r="1.2"/>
	<circle cx="0" cy="-15" r="1.2"/>
</g>
</defs>
<use x="187.20" y="107.00" xlink:href="#rdots"/>
<path class="stroke" stroke-width="1"
	d="M183.20 107.00v-24.00"/>
<path class="stroke" stroke-width="3"
	d="M178.70 107.00v-24.00"/>
<use x="187.20" y="174.30" xlink:href="#rdots"/>
<path class="stroke" stroke-width="1"
	d="M183.20 174.30v-67.30"/>
<path class="stroke" stroke-width="3"
	d="M178.70 174.30v-67.30"/>
<path class="stroke" stroke-width="1"
	d="M320.90 107.00v-24.00"/>
<path class="stroke" stroke-width="1"
	d="M320.90 174.30v-67.30"/>
<path class="stroke" stroke-width="1"
	d="M438.40 107.00v-24.00"/>
<path class="stroke" stroke-width="1"
	d="M438.40 174.30v-67.30"/>
<path class="stroke" stroke-width="1"
	d="M555.20 107.00v-24.00"/>
<path class="stroke" stroke-width="1"
	d="M555.20 174.30v-67.30"/>
<path class="stroke" stroke-width="1"
	d="M691.60 107.00v-24.00"/>
<path class="stroke" stroke-width="1"
	d="M691.60 174.30v-67.30"/>
<path d="m10.00 107.00
	h681.60
	M10.00 101.00
	h681.60
	M10.00 95.00
	h681.60
	M10.00 89.00
	h681.60
	M10.00 83.00
	h681.60
	" class="stroke"/>
<path d="m10.00 174.30
	h681.60
	M10.00 168.30
	h681.60
	M10.00 162.30
	h681.60
	M10.00 156.30
	h681.60
	M10.00 150.30
	h681.60
	" class="stroke"/>
</g>
<g stroke-width="0.70" font-family="Helvetica" font-size="12.00px" >
<text x="205.70" y="74.60">F</text>
<text x="456.10" y="74.60">B♭</text>
<text x="576.40" y="74.60">F</text>
</g>
<g stroke-width="0.70" font-weight="bold" font-family="Times" font-size="13.00px" >
<text x="128.20" y="131.10">A</text>
<path class="stroke" stroke-width="0.8"
	d="M141.10 131.10h27.90"/>
<text x="196.50" y="131.10">ma</text>
<path class="stroke" stroke-width="1.2"
	stroke-dasharray="5,23"
	d="M236.95 127.20h5"/>
<text x="258.90" y="131.10">zing</text>
<path class="stroke" stroke-width="0.8"
	d="M285.40 131.10h19.70"/>
<text x="329.30" y="131.10">grace,</text>
<text x="395.50" y="131.10">how</text>
<text x="446.80" y="131.10">sweet</text>
<text x="514.90" y="131.10">the</text>
<text x="563.60" y="131.10">sound</text>
<text x="630.80" y="131.10">that</text>
<path class="stroke" stroke-width="0.8"
	d="M654.30 131.10h21.50"/>
<defs>
<path id="utclef" class="fill" d="m-50 -90
	c-72 -41 -72 -158 52 -188
	150 -10 220 188 90 256
	-114 52 -275 0 -293 -136
	-15 -181 93 -229 220 -334
	88 -87 79 -133 62 -210
	-51 33 -94 105 -89 186
	17 267 36 374 49 574
	6 96 -19 134 -77 135
	-80 1 -126 -93 -61 -133
	85 -41 133 101 31 105
	23 17 92 37 90 -92
	-10 -223 -39 -342 -50 -617
	0 -90 0 -162 96 -232
	56 72 63 230 22 289
	-74 106 -257 168 -255 316
	9 153 148 185 252 133
	86 -65 29 -192 -80 -176
	-71 12 -105 67 -59 124"/>
<use id="tclef" transform="translate(0,6) scale(0.045)"
	xlink:href="#utclef"/>
</defs>
<use x="22.00" y="101.00" xlink:href="#tclef"/>
<defs>
<path id="uflat" class="fill" d="
	m100 -746
	h32
	v734
	l-32 4
	m32 -332
	c46 -72 152 -90 208 -20
	100 110 -120 326 -208 348
	m0 -28
	c54 0 200 -206 130 -290
	-50 -60 -130 -4 -130 34"/>
<use id="ft0" transform="translate(-3.5,3.5) scale(0.018)"
	xlink:href="#uflat"/>
</defs>
<use x="37.00" y="95.00" xlink:href="#ft0"/>
<g font-weight="bold" font-family="serif" font-size="16px" 
	transform="translate(53.00,106.50) scale(1.2,1)">
	<text text-anchor="middle">4</text>
	<text y="-12" text-anchor="middle">3</text>
</g>
<defs>
<rect id="r2" class="fill"
	x="-3.5" y="-3" width="7" height="3"/>
</defs>
<use x="72.50" y="95.00" xlink:href="#r2"/>
<path class="fill"
	d="M138.00 90.30l28.70 -5.60v3.20l-28.70 5.60"/>
<defs>
<path id="hl" class="stroke" d="m-6 0h12"/>
</defs>
<use x="134.90" y="113.00" xlink:href="#hl"/>
<defs>
<ellipse id="hd" rx="4.1" ry="2.9"
	transform="rotate(-20)" class="fill"/>
</defs>
<use x="134.90" y="113.00" xlink:href="#hd"/>
<path d="M138.40 113.00v-21.80" class="stroke"/>
<use x="162.90" y="104.00" xlink:href="#hd"/>
<path d="M166.40 104.00v-18.20" class="stroke"/>
<defs>
<path id="Hd" class="fill" d="m3 -1.6
	c-1 -1.8 -7 1.4 -6 3.2
	1 1.8 7 -1.4 6 -3.2
	m0.5 -0.3
	c2 3.8 -5 7.6 -7 3.8
	-2 -3.8 5 -7.6 7 -3.8"/>
</defs>
<use x="208.70" y="104.00" xlink:href="#Hd"/>
<path d="M212.20 104.00v-21.00" class="stroke"/>
<path class="fill"
	d="M274.20 77.80l28.70 4.30v3.20l-28.70 -4.30"/>
<use x="271.00" y="98.00" xlink:href="#hd"/>
<path d="M274.50 98.00v-19.10" class="stroke"/>
<use x="299.10" y="104.00" xlink:href="#hd"/>
<path d="M302.60 104.00v-20.90" class="stroke"/>
<use x="345.20" y="98.00" xlink:href="#Hd"/>
<path d="M348.70 98.00v-21.00" class="stroke"/>
<use x="407.60" y="101.00" xlink:href="#hd"/>
<path d="M411.10 101.00v-21.00" class="stroke"/>
<use x="462.00" y="104.00" xlink:href="#Hd"/>
<path d="M465.50 104.00v-21.00" class="stroke"/>
<use x="524.30" y="110.00" xlink:href="#hd"/>
<path d="M527.80 110.00v-21.00" class="stroke"/>
<use x="579.30" y="113.00" xlink:href="#hl"/>
<use x="579.30" y="113.00" xlink:href="#Hd"/>
<path d="M582.80 113.00v-21.00" class="stroke"/>
<path class="fill"
	d="M644.90 90.30l28.70 -5.60v3.20l-28.70 5.60"/>
<use x="641.70" y="113.00" xlink:href="#hl"/>
<use x="641.70" y="113.00" xlink:href="#hd"/>
<path d="M645.20 113.00v-21.80" class="stroke"/>
<use x="669.80" y="104.00" xlink:href="#hd"/>
<path d="M673.30 104.00v-18.20" class="stroke"/>
<defs>
<path id="ubclef" class="fill" d="m-200 -87
	c124 -35 222 -78 254 -236
	43 -228 -167 -246 -192 -103
	59 -80 157 22 92 78
	-62 47 -115 -22 -106 -88
	21 -141 270 -136 274 52
	-1 175 -106 264 -322 297
	m357 -250
	c0 -36 51 -34 51 0
	0 37 -51 36 -51 0
	m-2 -129
	c0 -36 51 -34 51 0
	0 38 -51 37 -51 0"/>
<use id="bclef" transform="translate(0,18) scale(0.045)"
	xlink:href="#ubclef"/>
</defs>
<use x="22.00" y="156.30" xlink:href="#bclef"/>
<use x="37.00" y="168.30" xlink:href="#ft0"/>
<g font-weight="bold" font-family="serif" font-size="16px" 
	transform="translate(53.00,173.80) scale(1.2,1)">
	<text text-anchor="middle">4</text>
	<text y="-12" text-anchor="middle">3</text>
</g>
<defs>
<rect id="r1" class="fill"
	x="-3.5" y="-6" width="7" height="3"/>
</defs>
<use x="120.60" y="162.30" xlink:href="#r1"/>
<use x="208.70" y="177.30" xlink:href="#Hd"/>
<circle class="fill" cx="217.40" cy="177.30" r="1.2"/>
<path d="M212.20 177.30v-21.00" class="stroke"/>
<use x="345.20" y="156.30" xlink:href="#Hd"/>
<circle class="fill" cx="353.90" cy="153.30" r="1.2"/>
<path d="M341.70 156.30v21.00" class="stroke"/>
<use x="462.00" y="168.30" xlink:href="#Hd"/>
<circle class="fill" cx="470.70" cy="165.30" r="1.2"/>
<path d="M465.50 168.30v-21.00" class="stroke"/>
<use x="579.30" y="156.30" xlink:href="#Hd"/>
<circle class="fill" cx="588.00" cy="153.30" r="1.2"/>
<path d="M575.80 156.30v21.00" class="stroke"/>
<text font-size="8px" 
	x="131.90" y="78.40">1</text>
<text font-size="8px" 
	x="159.90" y="78.40">3</text>
<text font-size="8px" 
	x="205.70" y="145.70">1</text>
<text font-size="8px" 
	x="342.20" y="145.70">5</text>
<text font-size="8px" 
	x="459.00" y="140.70">3</text>
<text font-size="8px" 
	x="521.30" y="78.40">2</text>
<text font-size="8px" 
	x="576.30" y="145.70">5</text>
<text font-size="8px" 
	x="666.80" y="78.40">2</text>
</g>
<g stroke-width="0.70" font-weight="bold" font-family="Times" font-size="13.00px" >
<path class="stroke" stroke-width="1"
	d="M10.00 317.60v-97.30"/>
<g transform="translate(10.00,220.30) scale(1,0.97)">
	<use xlink:href="#brace"/>
</g>
<path class="stroke" stroke-width="1"
	d="M189.10 244.30v-24.00"/>
<path class="stroke" stroke-width="1"
	d="M189.10 317.60v-73.30"/>
<path class="stroke" stroke-width="1"
	d="M321.10 244.30v-24.00"/>
<path class="stroke" stroke-width="1"
	d="M321.10 317.60v-73.30"/>
<path class="stroke" stroke-width="1"
	d="M397.40 244.30v-24.00"/>
<path class="stroke" stroke-width="1"
	d="M397.40 317.60v-73.30"/>
<path class="stroke" stroke-width="1"
	d="M542.50 244.30v-24.00"/>
<path class="stroke" stroke-width="1"
	d="M542.50 317.60v-73.30"/>
<path class="stroke" stroke-width="1"
	d="M691.60 244.30v-24.00"/>
<path class="stroke" stroke-width="1"
	d="M691.60 317.60v-73.30"/>
<path d="m10.00 244.30
	h681.60
	M10.00 238.30
	h681.60
	M10.00 232.30
	h681.60
	M10.00 226.30
	h681.60
	M10.00 220.30
	h681.60
	" class="stroke"/>
<path d="m10.00 317.60
	h681.60
	M10.00 311.60
	h681.60
	M10.00 305.60
	h681.60
	M10.00 299.60
	h681.60
	M10.00 293.60
	h681.60
	" class="stroke"/>
<path class="fill"
	d="M341.00 223.30c10.53 -4.60 63.53 -4.60 74.06 -0.00
	v-0.27c-12.75 -6.33 -61.31 -6.33 -74.06 0.27"/>
<path class="fill"
	d="M341.00 314.60c10.53 4.60 63.53 4.60 74.06 -0.00
	v0.27c-12.75 6.33 -61.31 6.33 -74.06 -0.27"/>
</g>
<g stroke-width="0.70" font-family="Helvetica" font-size="12.00px" >
<text x="334.90" y="211.90">C7</text>
<text x="561.30" y="211.90">F</text>
</g>
<g stroke-width="0.70" font-weight="bold" font-family="Times" font-size="13.00px" >
<text x="46.50" y="271.40">saved</text>
<text x="127.30" y="271.40">a</text>
<path class="stroke" stroke-width="0.8"
	d="M136.30 271.40h33.90"/>
<text x="197.70" y="271.40">wretch</text>
<text x="275.20" y="271.40">like</text>
<text x="329.80" y="271.40">me!</text>
<path class="stroke" stroke-width="0.8"
	d="M354.00 271.40h67.10"/>
<text x="481.30" y="271.40">I</text>
<path class="stroke" stroke-width="0.8"
	d="M488.90 271.40h34.90"/>
<text x="551.20" y="271.40">once</text>
<text x="623.80" y="271.40">was</text>
<path class="stroke" stroke-width="0.8"
	d="M648.00 271.40h24.80"/>
<use x="22.00" y="238.30" xlink:href="#tclef"/>
<use x="37.00" y="232.30" xlink:href="#ft0"/>
<use x="61.70" y="241.30" xlink:href="#Hd"/>
<path d="M65.20 241.30v-21.00" class="stroke"/>
<path class="fill"
	d="M135.60 214.50l32.50 2.60v3.20l-32.50 -2.60"/>
<use x="132.40" y="235.30" xlink:href="#hd"/>
<path d="M135.90 235.30v-19.80" class="stroke"/>
<use x="164.30" y="238.30" xlink:href="#hd"/>
<path d="M167.80 238.30v-20.20" class="stroke"/>
<use x="215.30" y="235.30" xlink:href="#Hd"/>
<path d="M218.80 235.30v-21.00" class="stroke"/>
<use x="286.10" y="229.30" xlink:href="#hd"/>
<path d="M282.60 229.30v21.00" class="stroke"/>
<use x="341.00" y="229.30" xlink:href="#Hd"/>
<circle class="fill" cx="349.70" cy="229.30" r="1.2"/>
<path d="M337.50 229.30v21.00" class="stroke"/>
<use x="415.10" y="229.30" xlink:href="#Hd"/>
<path d="M411.60 229.30v21.00" class="stroke"/>
<path class="fill"
	d="M482.00 255.50l32.50 -4.50v-3.20l-32.50 4.50"/>
<use x="485.90" y="235.30" xlink:href="#hd"/>
<path d="M482.40 235.30v19.20" class="stroke"/>
<use x="517.70" y="229.30" xlink:href="#hd"/>
<path d="M514.20 229.30v20.80" class="stroke"/>
<use x="564.20" y="229.30" xlink:href="#Hd"/>
<path d="M560.70 229.30v21.00" class="stroke"/>
<path class="fill"
	d="M638.10 215.10l32.50 4.50v3.20l-32.50 -4.50"/>
<use x="635.00" y="235.30" xlink:href="#hd"/>
<path d="M638.50 235.30v-19.20" class="stroke"/>
<use x="666.80" y="241.30" xlink:href="#hd"/>
<path d="M670.30 241.30v-20.80" class="stroke"/>
<use x="22.00" y="299.60" xlink:href="#bclef"/>
<use x="37.00" y="311.60" xlink:href="#ft0"/>
<use x="61.70" y="320.60" xlink:href="#Hd"/>
<circle class="fill" cx="71.40" cy="320.60" r="1.2"/>
<path d="M65.20 320.60v-21.00" class="stroke"/>
<use x="215.30" y="299.60" xlink:href="#Hd"/>
<circle class="fill" cx="224.00" cy="296.60" r="1.2"/>
<path d="M211.80 299.60v21.00" class="stroke"/>
<use x="341.00" y="308.60" xlink:href="#Hd"/>
<circle class="fill" cx="349.70" cy="308.60" r="1.2"/>
<path d="M344.50 308.60v-21.00" class="stroke"/>
<use x="415.10" y="308.60" xlink:href="#Hd"/>
<circle class="fill" cx="423.80" cy="308.60" r="1.2"/>
<path d="M418.60 308.60v-21.00" class="stroke"/>
<use x="564.20" y="320.60" xlink:href="#Hd"/>
<circle class="fill" cx="572.90" cy="320.60" r="1.2"/>
<path d="M567.70 320.60v-21.00" class="stroke"/>
<text font-size="8px" 
	x="58.70" y="213.70">1</text>
<text font-size="8px" 
	x="58.70" y="289.00">1</text>
<text font-size="8px" 
	x="212.30" y="289.00">5</text>
<text font-size="8px" 
	x="338.00" y="281.00">4</text>
<text font-size="8px" 
	x="561.20" y="289.00">1</text>
</g>
<g stroke-width="0.70" font-weight="bold" font-family="Times" font-size="13.00px" >
<path class="stroke" stroke-width="1"
	d="M10.00 468.90v-94.30"/>
<g transform="translate(10.00,374.60) scale(1,0.94)">
	<use xlink:href="#brace"/>
</g>
<path class="stroke" stroke-width="1"
	d="M115.80 398.60v-24.00"/>
<path class="stroke" stroke-width="1"
	d="M115.80 468.90v-70.30"/>
<path class="stroke" stroke-width="1"
	d="M194.10 398.60v-24.00"/>
<path class="stroke" stroke-width="1"
	d="M194.10 468.90v-70.30"/>
<path class="stroke" stroke-width="1"
	d="M292.80 398.60v-24.00"/>
<path class="stroke" stroke-width="1"
	d="M292.80 468.90v-70.30"/>
<path class="stroke" stroke-width="1"
	d="M387.70 398.60v-24.00"/>
<path class="stroke" stroke-width="1"
	d="M387.70 468.90v-70.30"/>
<path class="stroke" stroke-width="1"
	d="M461.80 398.60v-24.00"/>
<path class="stroke" stroke-width="1"
	d="M461.80 468.90v-70.30"/>
<path class="stroke" stroke-width="1"
	d="M518.90 398.60v-24.00"/>
<path class="stroke" stroke-width="1"
	d="M518.90 468.90v-70.30"/>
<path class="stroke" stroke-width="3"
	d="M598.10 398.60v-24.00"/>
<path class="stroke" stroke-width="1"
	d="M593.60 398.60v-24.00"/>
<use x="589.60" y="398.60" xlink:href="#rdots"/>
<path class="stroke" stroke-width="3"
	d="M598.10 468.90v-70.30"/>
<path class="stroke" stroke-width="1"
	d="M593.60 468.90v-70.30"/>
<use x="589.60" y="468.90" xlink:href="#rdots"/>
<path class="stroke" stroke-width="1"
	d="M650.60 398.60v-24.00"/>
<path class="stroke" stroke-width="1"
	d="M650.60 468.90v-70.30"/>
<path class="stroke" stroke-width="3"
	d="M690.10 398.60v-24.00"/>
<path class="stroke" stroke-width="1"
	d="M685.60 398.60v-24.00"/>
<path class="stroke" stroke-width="3"
	d="M690.10 468.90v-70.30"/>
<path class="stroke" stroke-width="1"
	d="M685.60 468.90v-70.30"/>
<path d="m10.00 398.60
	h681.60
	M10.00 392.60
	h681.60
	M10.00 386.60
	h681.60
	M10.00 380.60
	h681.60
	M10.00 374.60
	h681.60
	" class="stroke"/>
<path d="m10.00 468.90
	h681.60
	M10.00 462.90
	h681.60
	M10.00 456.90
	h681.60
	M10.00 450.90
	h681.60
	M10.00 444.90
	h681.60
	" class="stroke"/>
<path class="fill"
	d="M489.40 401.60c6.65 4.17 35.87 4.17 42.51 -0.00
	v0.24c-7.92 5.93 -34.59 5.93 -42.51 -0.24"/>
<path class="fill"
	d="M621.10 401.60c6.65 4.17 35.87 4.17 42.51 -0.00
	v0.24c-7.92 5.93 -34.59 5.93 -42.51 -0.24"/>
<path class="fill"
	d="M489.40 477.90c6.65 4.17 35.87 4.17 42.51 -0.00
	v0.24c-7.92 5.93 -34.59 5.93 -42.51 -0.24"/>
<path class="fill"
	d="M621.10 477.90c6.65 4.17 35.87 4.17 42.51 -0.00
	v0.24c-7.92 5.93 -34.59 5.93 -42.51 -0.24"/>
</g>
<g stroke-width="0.70" font-family="Helvetica" font-size="12.00px" >
<text x="52.90" y="354.20">F7</text>
<text x="130.10" y="354.20">B♭</text>
<text x="216.00" y="354.20">F</text>
<text x="401.60" y="354.20">C7</text>
<text x="486.40" y="354.20">F</text>
<text x="618.20" y="354.20">F</text>
</g>
<g stroke-width="0.70" font-family="Times" font-size="13.00px" >
<text x="465.80" y="354.00">1</text>
<path class="stroke"
	d="M461.80 342.60m0 20v-20h129.80v20"/>
<text x="603.60" y="354.00">2</text>
<path class="stroke"
	d="M599.60 342.60m0 20v-20h92.00v20"/>
</g>
<g stroke-width="0.70" font-weight="bold" font-family="Times" font-size="13.00px" >
<text x="46.50" y="422.70">lost,</text>
<text x="86.30" y="422.70">but</text>
<text x="123.80" y="422.70">now</text>
<text x="163.20" y="422.70">I&apos;m</text>
<text x="202.10" y="422.70">found,</text>
<text x="247.20" y="422.70">Was</text>
<path class="stroke" stroke-width="0.8"
	d="M274.50 422.70h7.70"/>
<text x="300.80" y="422.70">blind,</text>
<text x="345.60" y="422.70">but</text>
<path class="stroke" stroke-width="0.8"
	d="M366.00 422.70h11.00"/>
<text x="395.70" y="422.70">now</text>
<text x="439.10" y="422.70">I</text>
<text x="478.30" y="422.70">see.</text>
<path class="stroke" stroke-width="0.8"
	d="M502.10 422.70h35.70"/>
<use x="22.00" y="392.60" xlink:href="#tclef"/>
<use x="37.00" y="386.60" xlink:href="#ft0"/>
<use x="58.50" y="389.60" xlink:href="#Hd"/>
<path d="M62.00 389.60v-21.00" class="stroke"/>
<use x="96.00" y="392.60" xlink:href="#hd"/>
<path d="M99.50 392.60v-21.00" class="stroke"/>
<use x="135.90" y="395.60" xlink:href="#Hd"/>
<path d="M139.40 395.60v-21.00" class="stroke"/>
<use x="173.80" y="401.60" xlink:href="#hd"/>
<path d="M177.30 401.60v-21.00" class="stroke"/>
<use x="218.90" y="404.60" xlink:href="#hl"/>
<use x="218.90" y="404.60" xlink:href="#Hd"/>
<path d="M222.40 404.60v-21.00" class="stroke"/>
<path class="fill"
	d="M262.80 380.80l17.20 -4.50v3.20l-17.20 4.50"/>
<use x="259.70" y="404.60" xlink:href="#hl"/>
<use x="259.70" y="404.60" xlink:href="#hd"/>
<path d="M263.20 404.60v-22.90" class="stroke"/>
<use x="276.20" y="395.60" xlink:href="#hd"/>
<path d="M279.70 395.60v-18.20" class="stroke"/>
<use x="316.10" y="395.60" xlink:href="#Hd"/>
<path d="M319.60 395.60v-21.00" class="stroke"/>
<path class="fill"
	d="M358.40 369.80l16.40 3.60v3.20l-16.40 -3.60"/>
<use x="355.30" y="389.60" xlink:href="#hd"/>
<path d="M358.80 389.60v-18.70" class="stroke"/>
<use x="371.00" y="395.60" xlink:href="#hd"/>
<path d="M374.50 395.60v-21.30" class="stroke"/>
<use x="407.80" y="389.60" xlink:href="#Hd"/>
<path d="M411.30 389.60v-21.00" class="stroke"/>
<use x="443.70" y="392.60" xlink:href="#hd"/>
<path d="M447.20 392.60v-21.00" class="stroke"/>
<use x="489.40" y="395.60" xlink:href="#Hd"/>
<circle class="fill" cx="498.10" cy="395.60" r="1.2"/>
<path d="M492.90 395.60v-21.00" class="stroke"/>
<use x="531.90" y="395.60" xlink:href="#Hd"/>
<path d="M535.40 395.60v-21.00" class="stroke"/>
<path class="fill"
	d="M566.50 380.70l16.40 -4.40v3.20l-16.40 4.40"/>
<use x="563.40" y="404.60" xlink:href="#hl"/>
<use x="563.40" y="404.60" xlink:href="#hd"/>
<path d="M566.90 404.60v-23.00" class="stroke"/>
<use x="579.10" y="395.60" xlink:href="#hd"/>
<path d="M582.60 395.60v-18.20" class="stroke"/>
<use x="621.10" y="395.60" xlink:href="#Hd"/>
<circle class="fill" cx="629.80" cy="395.60" r="1.2"/>
<path d="M624.60 395.60v-21.00" class="stroke"/>
<use x="663.60" y="395.60" xlink:href="#Hd"/>
<path d="M667.10 395.60v-21.00" class="stroke"/>
<use x="22.00" y="450.90" xlink:href="#bclef"/>
<use x="37.00" y="462.90" xlink:href="#ft0"/>
<use x="58.50" y="450.90" xlink:href="#Hd"/>
<circle class="fill" cx="68.20" cy="447.90" r="1.2"/>
<path d="M55.00 450.90v21.00" class="stroke"/>
<use x="135.90" y="462.90" xlink:href="#Hd"/>
<circle class="fill" cx="144.60" cy="459.90" r="1.2"/>
<path d="M139.40 462.90v-21.00" class="stroke"/>
<use x="218.90" y="471.90" xlink:href="#Hd"/>
<circle class="fill" cx="227.60" cy="471.90" r="1.2"/>
<path d="M222.40 471.90v-21.00" class="stroke"/>
<use x="316.10" y="450.90" xlink:href="#Hd"/>
<circle class="fill" cx="324.80" cy="447.90" r="1.2"/>
<path d="M312.60 450.90v21.00" class="stroke"/>
<use x="407.80" y="459.90" xlink:href="#Hd"/>
<circle class="fill" cx="416.50" cy="459.90" r="1.2"/>
<path d="M411.30 459.90v-21.00" class="stroke"/>
<use x="489.40" y="471.90" xlink:href="#Hd"/>
<circle class="fill" cx="498.10" cy="471.90" r="1.2"/>
<path d="M492.90 471.90v-21.00" class="stroke"/>
<use x="531.90" y="471.90" xlink:href="#Hd"/>
<circle class="fill" cx="540.60" cy="471.90" r="1.2"/>
<path d="M535.40 471.90v-21.00" class="stroke"/>
<use x="621.10" y="471.90" xlink:href="#Hd"/>
<circle class="fill" cx="629.80" cy="471.90" r="1.2"/>
<path d="M624.60 471.90v-21.00" class="stroke"/>
<use x="663.60" y="471.90" xlink:href="#Hd"/>
<path d="M667.10 471.90v-21.00" class="stroke"/>
<text font-size="8px" 
	x="55.50" y="362.00">5</text>
<text font-size="8px" 
	x="55.50" y="440.30">5</text>
<text font-size="8px" 
	x="132.90" y="435.30">3</text>
<text font-size="8px" 
	x="170.80" y="370.00">2</text>
<text font-size="8px" 
	x="215.90" y="440.30">1</text>
<text font-size="8px" 
	x="273.20" y="370.00">3</text>
<text font-size="8px" 
	x="313.10" y="440.30">5</text>
<text font-size="8px" 
	x="404.80" y="432.30">3</text>
<text font-size="8px" 
	x="486.40" y="440.30">1</text>
<text font-size="8px" 
	x="560.40" y="370.00">1</text>
<text font-size="8px" 
	x="576.10" y="368.00">3</text>
<text font-size="8px" 
	x="618.10" y="440.30">1</text>
</g>
</svg>
